{"title":"Kitchen Nightmares Season 5 High Quality","uid":9050044,"size":13739384294,"categoryP":"video","categoryS":"tv_shows","magnet":"?xt=urn:btih:c67559200a089b97aa0621d5aef75631953cce26&amp;dn=Kitchen+Nightmares+Season+5+High+Quality&amp;tr=udp%3A%2F%2Ftracker.openbittorrent.com%3A80&amp;tr=udp%3A%2F%2Fopen.demonii.com%3A1337&amp;tr=udp%3A%2F%2Ftracker.coppersurfer.tk%3A6969&amp;tr=udp%3A%2F%2Fexodus.desync.com%3A6969","seeders":1,"leechers":0,"uploader":null,"files":-1,"time":1381850420,"description":"Complete name                            : Kitchen Nightmares s05Kitchen.Nightmares.US.S05E01.HR.WS.PDTV.X264-DIMENSION.mkv\nFormat                                   : Matroska\nFormat version                           : Version 2\nFile size                                : 874 MiB\nDuration                                 : 43mn 33s\nOverall bit rate                         : 2 806 Kbps\nEncoded date                             : UTC 2011-09-23 20:16:02\nWriting application                      : mkvmerge v3.1.0 ('Happy up here') built on Jan 19 2010 12:09:24\nWriting library                          : libebml v0.7.9 + libmatroska v0.8.1\n\nVideo\nID                                       : 1\nFormat                                   : AVC\nFormat/Info                              : Advanced Video Codec\nFormat profile                           : &lt;a class=&quot;__cf_email__&quot; href=&quot;/cdn-cgi/l/email-protection&quot; data-cfemail=&quot;226a4b454a626e160c13&quot;&gt;[email&amp;#160;protected]&lt;/a&gt;&lt;script cf-hash='f9e31' type=&quot;text/javascript&quot;&gt;\n/* &lt;![CDATA[ */!function(){try{var t=&quot;currentScript&quot;in document?document.currentScript:function(){for(var t=document.getElementsByTagName(&quot;script&quot;),e=t.length;e--;)if(t[e].getAttribute(&quot;cf-hash&quot;))return t[e]}();if(t&amp;&amp;t.previousSibling){var e,r,n,i,c=t.previousSibling,a=c.getAttribute(&quot;data-cfemail&quot;);if(a){for(e=&quot;&quot;,r=parseInt(a.substr(0,2),16),n=2;a.length-n;n+=2)i=parseInt(a.substr(n,2),16)^r,e+=String.fromCharCode(i);e=document.createTextNode(e),c.parentNode.replaceChild(e,c)}}}catch(u){}}();/* ]]&gt; */&lt;/script&gt;\nFormat settings, CABAC                   : Yes\nFormat settings, ReFrames                : 8 frames\nCodec ID                                 : V_MPEG4/ISO/AVC\nDuration                                 : 43mn 33s\nBit rate                                 : 2 302 Kbps\nWidth                                    : 960 pixels\nHeight                                   : 532 pixels\nDisplay aspect ratio                     : 16:9\nFrame rate mode                          : Constant\nFrame rate                               : 23.976 fps\nColor space                              : YUV\nChroma subsampling                       : 4:2:0\nBit depth                                : 8 bits\nScan type                                : Progressive\nBits/(Pixel*Frame)                       : 0.188\nStream size                              : 717 MiB (82%)\nWriting library                          : x264 core 116 r2074 2641b9e\nEncoding settings                        : cabac=1 // deblock=1:-2:-2 / analyse=0x3:0x113 / me=umh / subme=9 / psy=1 / psy_rd=1.00:0.00 // me_range=24 / chroma_me=1 / trellis=1 / 8x8dct=1 / cqm=0 / deadzone=21,11 / fast_pskip=0 / chroma_qp_offset=-2 / threads=12 / sliced_threads=0 / nr=0 / decimate=1 / interlaced=0 / bluray_compat=0 / constrained_intra=0 / bframes=5 / b_pyramid=2 / b_adapt=1 / b_bias=0 / direct=1 / weightb=1 / open_gop=0 / weightp=2 / keyint=250 / keyint_min=23 / scenecut=40 / intra_refresh=0 / rc_lookahead=40 / rc=crf / mbtree=1 / crf=20.0 / qcomp=0.60 / qpmin=0 / qpmax=69 / qpstep=4 / ip_ratio=1.40 / aq=1:1.00\nLanguage                                 : English\nDefault                                  : No\nForced                                   : No\n\nAudio\nID                                       : 2\nFormat                                   : AC-3\nFormat/Info                              : Audio Coding 3\nMode extension                           : CM (complete main)\nFormat settings, Endianness              : Big\nCodec ID                                 : A_AC3\nDuration                                 : 43mn 33s\nBit rate mode                            : Constant\nBit rate                                 : 448 Kbps\nChannel(s)                               : 6 channels\nChannel positions                        : Front: L C R, Side: L R, LFE\nSampling rate                            : 48.0 KHz\nBit depth                                : 16 bits\nCompression mode                         : Lossy\nStream size                              : 140 MiB (16%)\nDefault                                  : Yes\nForced                                   : No\n","torrent":{"xt":"urn:btih:c67559200a089b97aa0621d5aef75631953cce26","amp;dn":"Kitchen+Nightmares+Season+5+High+Quality","amp;tr":["udp%3A%2F%2Ftracker.openbittorrent.com%3A80","udp%3A%2F%2Fopen.demonii.com%3A1337","udp%3A%2F%2Ftracker.coppersurfer.tk%3A6969","udp%3A%2F%2Fexodus.desync.com%3A6969"],"infoHash":"c67559200a089b97aa0621d5aef75631953cce26","infoHashBuffer":{"type":"Buffer","data":[198,117,89,32,10,8,155,151,170,6,33,213,174,247,86,49,149,60,206,38]},"announce":[],"urlList":[]}}